# xmcd CD database file
#
# Track frame offsets:
#	150
#	10740
#	23391
#	34514
#	45503
#	59237
#	66788
#	78905
#	87637
#	99860
#	108970
#	120966
#	136507
#	152100
#	163782
#	174719
#	186450
#	198814
#	210535
#	222732
#
# Disc length: 3127 seconds
#
# Revision: 0
# Processed by: cddbd v1.5.1PL0 Copyright (c) Steve Scherf et al.
# Submitted via: ACXtractor (MTCDDB.DLL V2003.12.21)
#
DISCID=060c3514
DTITLE=Hank Williams - The Gold Collection CD 2
DYEAR=2004
DGENRE=Country
TTITLE0=I Can´t Help It (If I´m Still In Love With You)
TTITLE1=Hey, Good Lookin´
TTITLE2=Crazy Heart
TTITLE3=I Heard That Lonesome Whistle
TTITLE4=Ramblin´ Man
TTITLE5=Baby, We´re Really In Love
TTITLE6=Half As Much
TTITLE7=Honky Tonk Blues
TTITLE8=I´m Sorry For Your Friend
TTITLE9=Let The Spirit Descend
TTITLE10=The Old Country Church
TTITLE11=Jambalaya (On The Bayou)
TTITLE12=Window Shopping
TTITLE13=Settin´The Woods On Fire
TTITLE14=I´ll Never Get Out Of This World Alive
TTITLE15=You Win Again
TTITLE16=I Won´t Be Home No More
TTITLE17=Kaw-Liga
TTITLE18=Your Cheating Heart
TTITLE19=Take These Chains From My Heart
EXTD=ID3G:   2 YEAR: 2004
EXTT0=
EXTT1=
EXTT2=
EXTT3=
EXTT4=
EXTT5=
EXTT6=
EXTT7=
EXTT8=
EXTT9=
EXTT10=
EXTT11=
EXTT12=
EXTT13=
EXTT14=
EXTT15=
EXTT16=
EXTT17=
EXTT18=
EXTT19=
PLAYORDER=
